<?xml version="1.0" standalone="no"?>
<!DOCTYPE svg PUBLIC "-//W3C//DTD SVG 20010904//EN"
 "http://www.w3.org/TR/2001/REC-SVG-20010904/DTD/svg10.dtd">
<svg version="1.0" xmlns="http://www.w3.org/2000/svg"
 width="1200.000000pt" height="1200.000000pt" viewBox="0 0 1200.000000 1200.000000"
 preserveAspectRatio="xMidYMid meet">
<metadata>
Created by potrace 1.14, written by Peter Selinger 2001-2017
</metadata>
<g transform="translate(0.000000,1200.000000) scale(0.100000,-0.100000)"
fill="#000000" stroke="none">
<path d="M6375 10544 c-67 -33 -127 -103 -141 -165 -2 -10 -7 -29 -10 -41 -25
-101 -6 -179 60 -238 19 -18 33 -36 31 -41 -6 -8 13 -15 63 -24 18 -3 65 -12
105 -21 39 -8 83 -17 97 -20 14 -2 45 -9 70 -14 25 -6 56 -12 70 -14 14 -3 25
-5 25 -6 0 -2 14 -5 60 -13 71 -14 91 -18 105 -23 8 -3 31 -8 50 -10 19 -3 60
-11 90 -19 30 -8 78 -17 105 -21 28 -3 53 -8 58 -11 7 -4 33 -10 82 -18 34 -6
79 -16 96 -21 9 -2 33 -7 54 -9 20 -3 41 -7 45 -10 5 -3 28 -8 52 -11 63 -9
75 -19 84 -66 9 -48 9 -48 17 -68 3 -8 13 -46 21 -85 18 -77 18 -80 36 -145
13 -47 16 -59 34 -145 1 -5 5 -19 9 -30 3 -11 8 -31 11 -45 3 -14 10 -43 16
-65 6 -22 13 -49 15 -60 6 -32 13 -60 15 -62 3 -4 4 -7 14 -58 4 -22 8 -42 8
-45 0 -3 4 -13 9 -22 5 -9 12 -34 15 -55 8 -46 9 -54 17 -73 5 -14 9 -33 25
-110 7 -30 4 -37 -16 -47 -14 -7 -30 -13 -37 -13 -15 0 -32 -38 -28 -65 1 -11
12 -51 23 -90 12 -38 23 -74 24 -80 2 -5 5 -17 8 -25 12 -36 27 -88 34 -120
10 -43 11 -48 14 -57 1 -5 2 -11 1 -15 0 -5 3 -8 7 -8 5 0 9 -6 9 -12 0 -7 10
-49 23 -93 12 -44 24 -87 25 -95 2 -8 4 -15 5 -15 1 0 3 -8 6 -17 7 -30 11
-42 17 -58 4 -8 8 -25 10 -37 2 -12 6 -26 10 -29 4 -4 7 -17 7 -29 0 -12 3
-25 7 -29 4 -3 9 -17 11 -29 4 -26 7 -37 14 -57 8 -22 39 -127 42 -142 4 -20
45 -159 57 -193 5 -16 12 -40 15 -52 2 -12 8 -33 13 -45 5 -13 9 -26 9 -31 2
-10 23 -88 30 -107 3 -8 4 -19 3 -24 -1 -4 4 -14 10 -22 6 -8 9 -14 5 -14 -3
0 -1 -12 5 -27 6 -16 13 -39 16 -53 2 -13 9 -30 15 -37 6 -7 8 -13 5 -13 -3 0
-1 -15 4 -32 6 -18 12 -37 13 -43 1 -5 9 -30 16 -55 8 -25 14 -52 14 -60 0 -8
6 -21 13 -28 7 -8 11 -18 8 -22 -3 -5 -2 -17 3 -27 8 -15 29 -90 36 -128 1 -5
4 -14 7 -20 4 -5 12 -35 19 -65 7 -30 17 -60 22 -67 5 -7 7 -17 4 -22 -4 -5
-1 -13 5 -16 5 -4 8 -13 5 -20 -3 -8 -1 -15 4 -17 4 -2 11 -16 14 -33 3 -16
15 -61 26 -100 11 -38 23 -81 26 -94 3 -14 7 -28 10 -33 3 -4 7 -16 9 -25 5
-22 61 -221 82 -288 8 -27 16 -57 17 -65 1 -8 7 -24 13 -35 6 -11 9 -28 8 -37
-2 -10 1 -18 7 -18 6 0 8 -6 5 -14 -3 -8 -3 -17 1 -20 12 -13 10 -36 -4 -37
-27 -3 -32 -4 -39 -11 -4 -3 -17 -4 -30 -2 -13 2 -27 -1 -30 -6 -7 -11 -7
-128 -1 -180 3 -26 -23 -87 -47 -112 -8 -8 -21 -27 -30 -43 -8 -17 -24 -39
-34 -50 -11 -11 -19 -24 -20 -29 0 -4 -9 -20 -19 -34 -36 -48 -488 -713 -509
-750 -25 -42 -91 -137 -97 -140 -5 -2 -8 -10 -8 -18 0 -8 -4 -14 -10 -14 -5 0
-10 -7 -10 -15 0 -8 -4 -15 -10 -15 -5 0 -10 -6 -10 -14 0 -8 -6 -21 -14 -28
-21 -21 -126 -179 -126 -189 0 -5 -4 -9 -10 -9 -5 0 -10 -5 -10 -10 0 -6 -5
-16 -10 -23 -6 -7 -24 -32 -41 -55 -25 -36 -35 -43 -52 -37 -12 3 -28 6 -34 6
-7 -1 -19 -1 -25 -1 -22 0 -257 15 -393 25 -44 4 -116 8 -160 10 -44 2 -80 4
-80 5 0 1 -31 3 -70 5 -82 5 -237 14 -315 20 -30 2 -95 7 -145 10 -49 3 -121
8 -160 11 -38 2 -108 6 -155 9 -47 2 -85 5 -85 5 0 1 -27 3 -60 5 -73 4 -248
15 -330 20 -33 3 -100 7 -150 9 -49 3 -90 6 -90 6 0 1 -31 3 -70 6 -38 2 -101
6 -138 8 -38 2 -71 6 -74 10 -3 3 -14 1 -24 -4 -10 -6 -20 -6 -23 -2 -2 4 -35
9 -73 11 -79 3 -120 6 -223 15 -184 17 -324 22 -427 14 -63 -4 -71 0 -78 42 0
3 -7 16 -15 30 -8 14 -15 27 -15 30 -4 25 -103 192 -117 198 -5 2 -8 10 -8 18
0 8 -4 14 -8 14 -5 0 -13 9 -18 19 -18 39 -276 311 -294 311 -5 0 -15 6 -22
13 -22 21 -301 164 -338 172 -3 1 -18 7 -35 14 -16 6 -50 19 -75 28 -25 9 -50
20 -56 25 -6 4 -14 5 -17 1 -4 -3 -13 -1 -20 5 -12 10 -96 36 -156 48 -14 3
-28 7 -31 9 -4 2 -29 7 -57 10 -27 3 -60 8 -74 11 -61 13 -327 22 -345 11 -8
-5 -52 -16 -158 -42 -37 -9 -141 -63 -170 -87 -29 -27 -30 -54 -2 -78 11 -8
17 -7 28 8 12 17 26 19 168 16 85 -2 171 -6 190 -9 19 -3 41 -6 48 -7 6 -1 12
-5 12 -10 0 -5 4 -7 9 -4 8 6 114 -17 151 -31 8 -3 20 -7 25 -8 26 -6 154 -60
193 -81 23 -13 49 -24 57 -24 7 0 16 -4 19 -9 6 -9 -33 -6 -114 9 -58 11 -250
10 -309 -2 -25 -5 -53 -11 -61 -12 -124 -18 -296 -111 -412 -224 -62 -60 -158
-187 -158 -210 0 -6 -3 -12 -7 -14 -9 -3 -52 -102 -58 -132 -3 -10 -9 -33 -14
-50 -28 -90 -35 -274 -15 -400 55 -342 280 -649 596 -813 116 -60 189 -85 333
-112 51 -10 290 -8 335 2 14 4 37 8 52 11 15 2 31 7 36 10 5 3 21 7 36 10 34
6 216 96 216 107 0 4 9 10 20 14 33 10 172 156 221 230 47 72 92 173 115 258
7 26 12 48 12 50 -1 1 2 11 6 23 5 16 13 20 34 18 15 -2 54 -4 87 -5 33 -2 66
-7 73 -12 8 -6 12 -5 12 2 0 7 4 10 8 7 5 -3 50 -8 102 -11 52 -3 97 -8 102
-11 4 -3 8 1 8 8 0 8 3 9 8 3 4 -6 32 -11 62 -13 30 -1 89 -4 130 -7 41 -3
109 -7 150 -9 41 -3 111 -8 155 -11 44 -4 108 -7 143 -8 34 -1 62 -5 62 -10 0
-4 9 -3 20 3 11 6 26 8 32 4 6 -4 41 -9 77 -11 170 -8 221 -12 231 -18 5 -3
10 -1 10 5 0 6 5 8 13 3 6 -4 30 -8 52 -9 22 -1 83 -5 135 -8 163 -12 253 -18
312 -20 32 -1 60 -5 64 -9 4 -3 14 -2 24 3 10 5 20 6 24 3 4 -4 39 -8 79 -10
40 -1 72 -3 72 -3 0 -3 291 -20 377 -23 32 -1 58 -6 58 -10 0 -4 9 -3 20 3 11
6 20 7 20 2 0 -4 37 -9 83 -9 45 -1 82 -3 82 -4 0 -1 23 -3 50 -4 28 -2 91 -6
140 -10 50 -4 124 -9 165 -11 148 -8 216 -13 290 -20 128 -12 500 -9 500 4 0
4 24 7 52 7 29 0 69 4 88 8 19 4 49 9 65 12 28 5 46 9 105 20 14 3 41 8 60 11
19 3 42 7 50 10 8 3 33 8 55 10 22 3 47 7 55 10 8 3 35 8 60 11 25 3 53 10 63
15 10 5 21 7 23 5 3 -3 30 1 60 8 58 13 57 14 54 -40 -3 -66 -1 -222 5 -255 6
-36 17 -98 20 -115 27 -122 112 -301 196 -412 47 -63 215 -233 230 -233 6 0
19 -8 30 -19 52 -48 254 -135 364 -156 46 -9 49 -10 63 -18 7 -5 12 -3 12 5 0
9 3 10 8 2 8 -13 180 -13 201 0 10 6 12 5 7 -2 -4 -7 -2 -12 3 -12 6 0 11 4
11 8 0 5 6 9 13 9 128 6 332 111 459 236 40 40 141 171 144 187 0 3 15 35 33
71 17 37 34 75 36 85 3 11 12 44 20 74 20 69 27 130 28 250 2 186 -33 339
-116 505 -57 115 -109 188 -205 287 -47 49 -81 88 -77 88 4 0 2 7 -5 15 -6 8
-9 19 -5 25 3 5 1 10 -5 10 -7 0 -10 6 -7 14 3 8 3 17 -1 21 -4 4 -7 10 -7 13
-1 7 -32 105 -42 132 -3 8 -7 21 -9 29 -5 23 -67 143 -89 170 -45 55 -131 141
-142 141 -6 0 -13 4 -15 9 -2 7 -101 62 -118 66 -22 5 -70 33 -92 53 -14 13
-30 23 -35 21 -4 -1 -21 38 -36 87 -16 49 -31 96 -34 104 -9 22 -9 21 -18 65
-4 22 -12 46 -18 52 -5 7 -7 13 -3 13 3 0 0 15 -7 33 -15 36 -8 83 9 56 5 -9
17 -18 26 -22 20 -7 33 22 23 52 -3 11 -8 29 -10 40 -3 12 -7 29 -10 38 -12
44 -26 99 -30 115 -29 122 -91 342 -105 375 -10 23 -17 43 -15 45 2 2 -5 9
-15 16 -11 7 -20 9 -20 4 0 -11 -38 -13 -45 -1 -4 5 -8 19 -11 31 -6 26 -6 27
-23 88 -13 45 -18 63 -27 110 -3 13 -9 29 -15 36 -5 6 -6 14 -3 17 3 3 2 12
-2 19 -5 7 -9 18 -10 23 -1 6 -7 30 -14 55 -7 25 -14 52 -15 60 -2 8 -4 15 -5
15 -1 0 -3 11 -6 25 -2 14 -7 32 -11 40 -3 8 -7 22 -9 30 -1 8 -7 31 -13 50
-9 28 -24 85 -37 133 -1 4 -2 8 -4 10 -1 1 -3 11 -5 22 -4 22 -24 101 -32 125
-2 8 -4 16 -4 17 0 2 -5 17 -10 35 -9 31 -14 49 -24 88 -2 8 -4 15 -5 15 -1 0
-7 27 -14 62 -1 7 -5 16 -9 19 -4 4 -7 17 -7 29 0 12 -3 25 -7 29 -4 3 -8 15
-10 26 -1 10 -15 63 -29 117 -14 54 -28 105 -29 113 -2 8 -4 16 -5 18 -2 1 -4
7 -5 12 -1 6 -3 11 -5 13 -1 1 -3 9 -5 17 -1 9 -13 51 -25 95 -12 44 -24 87
-25 95 -4 29 -18 75 -25 85 -4 6 -7 17 -7 25 0 12 -9 47 -28 110 -1 3 -5 19
-9 35 -4 17 -16 59 -26 95 -11 36 -22 79 -24 95 -3 17 -15 57 -26 90 -11 33
-20 61 -20 63 3 5 -13 67 -18 77 -4 6 -7 15 -8 20 -8 41 -14 64 -22 86 -6 15
-8 29 -6 32 3 3 1 13 -5 24 -6 10 -17 45 -25 78 -8 33 -22 87 -31 120 -18 64
-18 64 -29 110 -4 17 -10 37 -13 45 -3 8 -8 24 -10 35 -2 11 -9 36 -15 55 -7
19 -12 43 -13 52 0 9 -3 20 -7 24 -5 4 -8 16 -8 26 0 16 -4 19 -25 18 -3 0
-18 6 -34 14 -20 11 -28 22 -27 38 1 13 0 28 -3 33 -3 6 -6 15 -7 20 -1 6 -10
42 -18 80 -9 39 -19 84 -21 100 -3 17 -7 41 -11 55 -3 14 -7 39 -10 55 -2 17
-7 37 -11 45 -3 8 -7 24 -8 35 -2 16 -30 155 -52 250 -2 11 -6 31 -9 45 -3 14
-7 33 -10 43 -3 10 -7 30 -9 45 -2 15 -10 55 -18 90 -9 34 -13 62 -11 62 3 0
0 9 -7 21 -9 18 -8 20 8 16 43 -12 59 -16 83 -21 14 -2 45 -9 70 -15 25 -5 59
-12 75 -15 17 -3 41 -8 55 -11 14 -3 36 -8 50 -11 14 -2 39 -7 55 -11 17 -4
35 -7 40 -8 6 -1 12 -3 15 -4 3 -2 14 -4 25 -6 24 -3 221 -44 250 -51 11 -3
31 -7 45 -9 31 -5 66 -12 105 -22 17 -4 32 -7 35 -8 78 -18 90 -17 137 16 70
46 101 95 109 168 2 24 6 47 9 49 3 3 -1 12 -8 20 -10 13 -9 14 3 7 12 -7 13
-6 3 6 -10 12 -10 18 0 29 9 10 9 11 0 6 -12 -6 -18 5 -14 27 0 4 -4 7 -10 7
-5 0 -8 4 -5 8 5 8 -39 61 -52 63 -10 1 -31 6 -82 18 -25 7 -54 13 -65 16 -11
2 -49 11 -85 20 -36 9 -74 18 -85 20 -11 2 -29 6 -40 9 -60 16 -95 23 -95 19
0 -3 -7 1 -17 8 -9 8 -18 13 -20 12 -1 -2 -4 -3 -5 -2 -2 0 -12 2 -23 3 -34 4
-129 27 -150 36 -11 5 -33 11 -50 13 -16 3 -41 8 -54 11 -13 3 -64 15 -115 27
-50 11 -105 25 -123 30 -31 10 -73 19 -103 24 -8 1 -35 8 -60 15 -53 15 -53
15 -105 24 -34 6 -46 9 -68 16 -9 3 -87 22 -107 26 -14 2 -32 7 -40 11 -8 3
-24 7 -36 8 -11 2 -40 9 -65 15 -47 13 -69 18 -109 26 -14 3 -34 8 -45 11 -11
4 -24 8 -30 9 -44 9 -193 44 -295 69 -58 14 -114 28 -125 30 -11 2 -38 9 -60
14 -22 5 -53 13 -70 17 -16 4 -37 9 -45 11 -8 2 -24 6 -35 8 -11 2 -58 14
-105 25 -47 12 -92 23 -100 25 -70 15 -187 48 -195 55 -6 5 -31 -2 -60 -16z
m2552 -5904 c2 -8 4 -23 5 -32 1 -10 6 -18 10 -18 4 0 8 -10 8 -23 0 -13 3
-27 7 -31 4 -3 8 -12 9 -19 1 -7 7 -32 13 -57 7 -25 14 -54 16 -64 2 -11 -5
-36 -18 -55 -12 -20 -22 -38 -22 -41 -1 -3 -11 -30 -22 -62 -12 -31 -24 -68
-26 -82 -1 -14 -6 -28 -10 -32 -3 -4 -2 -15 4 -25 5 -11 6 -19 1 -19 -10 0 -8
-162 2 -240 4 -30 14 -70 21 -88 14 -31 13 -34 -28 -81 -23 -26 -48 -57 -55
-68 -12 -17 -23 -19 -85 -16 -40 1 -102 4 -139 4 -42 1 -68 6 -68 13 0 7 -3 7
-8 1 -4 -5 -51 -10 -105 -10 -77 0 -96 3 -92 13 3 8 8 25 11 38 3 13 10 24 16
24 5 0 6 5 3 10 -3 6 -2 10 2 10 5 0 17 19 28 43 10 23 21 44 24 47 3 3 25 43
49 90 23 47 68 132 98 190 31 58 70 132 87 165 17 33 34 63 40 66 5 3 8 9 8
13 -1 7 25 60 93 186 25 47 58 111 73 142 23 47 30 54 38 40 5 -9 11 -24 12
-32z m811 -487 c15 -10 30 -22 34 -28 5 -6 8 -6 8 0 0 5 11 -2 25 -17 14 -15
25 -32 25 -38 0 -5 4 -10 9 -10 11 0 96 -169 88 -176 -2 -3 -20 2 -38 10 -37
16 -69 28 -84 31 -5 2 -29 8 -53 14 -24 7 -60 14 -80 16 -53 6 -220 6 -267 0
-22 -3 -47 -6 -55 -7 -8 0 -21 -5 -27 -11 -7 -5 -13 -7 -13 -3 0 6 -71 -18
-102 -35 -19 -10 -22 -4 -18 41 1 14 7 28 12 31 13 8 232 43 270 44 14 0 24 3
22 7 -5 7 16 9 104 10 17 0 32 5 32 10 0 6 7 8 15 5 7 -3 24 2 37 12 21 18 22
20 6 59 -22 56 -4 69 50 35z m-6913 -442 c3 -5 2 -12 -3 -15 -5 -3 -9 1 -9 9
0 17 3 19 12 6z m6230 -291 c3 -6 -1 -7 -9 -4 -18 7 -21 14 -7 14 6 0 13 -4
16 -10z m-1335 -46 c0 -2 -7 -4 -15 -4 -8 0 -15 4 -15 10 0 5 7 7 15 4 8 -4
15 -8 15 -10z m-4497 -149 c-3 -9 -8 -14 -10 -11 -3 3 -2 9 2 15 9 16 15 13 8
-4z m6022 -733 c-3 -3 -11 0 -18 7 -9 10 -8 11 6 5 10 -3 15 -9 12 -12z"/>
<path d="M3905 7710 c-4 -6 -11 -7 -17 -4 -7 4 -8 2 -4 -5 6 -9 11 -9 22 0 14
11 18 19 10 19 -3 0 -8 -5 -11 -10z"/>
</g>
</svg>
